<?xml version="1.0" standalone="no"?>
<!DOCTYPE svg PUBLIC "-//W3C//DTD SVG 20010904//EN"
 "http://www.w3.org/TR/2001/REC-SVG-20010904/DTD/svg10.dtd">
<svg version="1.0" xmlns="http://www.w3.org/2000/svg"
 width="64.000000pt" height="64.000000pt" viewBox="0 0 64.000000 64.000000"
 preserveAspectRatio="xMidYMid meet">

<g transform="translate(0.000000,64.000000) scale(0.100000,-0.100000)"
fill="#000000" stroke="none">
<path d="M297 603 c-15 -14 -6 -49 15 -58 32 -15 37 -40 7 -32 -23 6 -23 5 -5
-8 11 -8 23 -15 27 -15 8 0 33 30 28 33 -2 1 -13 7 -23 13 -35 19 -30 33 8 27
31 -5 36 -3 36 14 0 15 -9 22 -31 27 -40 8 -54 8 -62 -1z"/>
<path d="M158 459 c-10 -6 -19 -29 -23 -61 -3 -29 -8 -65 -11 -80 -5 -27 -4
-27 53 -30 l58 -3 -3 -110 c-2 -60 -6 -118 -8 -127 -5 -16 5 -18 115 -18 l121
0 0 80 0 79 32 -13 c22 -10 40 -11 57 -5 42 16 50 38 51 127 l0 82 -35 0 -35
0 -1 -67 c-1 -50 -3 -61 -9 -43 -4 14 -8 41 -9 60 l-1 35 -27 -40 c-33 -49
-80 -130 -96 -167 -6 -16 -17 -28 -24 -28 -7 0 -20 -11 -29 -25 -18 -27 -22
-29 -43 -16 -12 8 -12 12 -2 25 12 14 10 16 -8 16 -12 0 -21 6 -21 15 0 8 9
15 20 15 11 0 20 -5 20 -11 0 -5 5 -7 10 -4 6 3 10 26 10 51 0 24 4 44 9 44 5
0 8 43 7 95 -1 83 -3 95 -18 95 -14 0 -16 -6 -12 -30 4 -16 3 -59 -1 -95 -6
-55 -10 -65 -26 -65 -18 0 -19 8 -19 115 l0 115 -31 0 c-26 0 -29 -2 -19 -14
6 -8 10 -25 7 -38 -4 -21 -4 -20 -6 4 -1 32 -29 51 -53 37z"/>
<path d="M380 371 c0 -77 4 -103 16 -115 8 -9 20 -14 25 -11 14 9 11 15 -11
23 -18 7 -16 13 30 82 28 41 50 80 50 87 0 18 -34 33 -74 33 l-36 0 0 -99z"/>
</g>
</svg>
