<?xml version="1.0" standalone="no"?>
<!DOCTYPE svg PUBLIC "-//W3C//DTD SVG 20010904//EN"
 "http://www.w3.org/TR/2001/REC-SVG-20010904/DTD/svg10.dtd">
<svg version="1.0" xmlns="http://www.w3.org/2000/svg"
 width="64.000000pt" height="64.000000pt" viewBox="0 0 64.000000 64.000000"
 preserveAspectRatio="xMidYMid meet">

<g transform="translate(0.000000,64.000000) scale(0.100000,-0.100000)"
fill="#000000" stroke="none">
<path d="M435 593 c-18 -17 -19 -29 -3 -39 6 -4 8 -3 4 4 -3 6 -2 13 4 17 5 3
10 1 10 -5 0 -8 6 -8 20 0 11 6 20 15 20 19 0 16 -40 19 -55 4z"/>
<path d="M170 560 c0 -6 8 -14 18 -17 9 -4 20 -11 24 -17 5 -7 8 -4 8 7 0 24
15 21 33 -5 19 -29 34 -16 19 17 -10 21 -18 25 -57 25 -25 0 -45 -5 -45 -10z"/>
<path d="M29 533 c-10 -11 -9 -18 4 -31 16 -15 17 -15 17 2 0 19 1 19 20 1 19
-17 22 -18 37 -2 14 13 15 19 5 29 -18 18 -69 18 -83 1z"/>
<path d="M539 533 c-10 -11 -9 -18 4 -31 16 -15 17 -15 17 3 1 18 1 19 11 3
12 -22 32 -23 49 -3 10 12 10 19 1 28 -17 17 -68 17 -82 0z"/>
<path d="M380 333 c0 -16 -3 -38 -6 -50 -6 -20 -3 -23 25 -23 26 0 31 4 31 25
0 14 4 25 10 25 5 0 12 -11 16 -25 5 -19 13 -25 35 -25 33 0 32 -3 18 56 l-11
44 -59 0 c-58 0 -59 -1 -59 -27z"/>
<path d="M310 40 c0 -5 21 -10 48 -10 34 0 43 3 32 10 -20 13 -80 13 -80 0z"/>
<path d="M470 40 c0 -5 21 -10 48 -10 34 0 43 3 32 10 -20 13 -80 13 -80 0z"/>
</g>
</svg>
