<?xml version="1.0" standalone="no"?>
<!DOCTYPE svg PUBLIC "-//W3C//DTD SVG 20010904//EN"
 "http://www.w3.org/TR/2001/REC-SVG-20010904/DTD/svg10.dtd">
<svg version="1.0" xmlns="http://www.w3.org/2000/svg"
 width="64.000000pt" height="64.000000pt" viewBox="0 0 64.000000 64.000000"
 preserveAspectRatio="xMidYMid meet">

<g transform="translate(0.000000,64.000000) scale(0.100000,-0.100000)"
fill="#000000" stroke="none">
<path d="M298 599 c-26 -14 -24 -59 2 -59 11 0 20 5 20 11 0 6 8 8 19 4 26 -8
51 4 51 26 0 13 -7 19 -24 19 -13 0 -30 2 -38 5 -7 2 -21 0 -30 -6z"/>
<path d="M87 431 c-15 -16 -27 -38 -27 -48 0 -10 -9 -24 -20 -31 -30 -18 -25
-57 10 -84 17 -12 26 -24 22 -27 -5 -3 -7 -25 -4 -48 3 -37 7 -43 27 -43 34 0
59 -34 52 -69 -6 -28 -4 -31 31 -41 49 -13 251 -13 290 1 28 9 31 14 25 40 -7
36 19 69 54 69 19 0 23 5 23 29 0 16 3 36 6 45 5 14 -4 16 -60 16 -49 0 -66 3
-66 14 0 7 -9 25 -20 39 -15 18 -17 27 -8 30 7 2 10 7 7 11 -9 9 -39 -4 -39
-18 0 -6 -10 -16 -22 -21 -13 -6 -27 -20 -33 -32 -8 -19 -18 -23 -52 -23 -44
0 -52 7 -31 28 8 8 7 22 -6 56 -13 34 -15 50 -7 65 9 16 7 21 -9 26 -11 3 -20
10 -20 15 0 8 -61 30 -85 30 -6 0 -22 -13 -38 -29z"/>
<path d="M557 413 c-30 -49 -32 -79 -5 -87 25 -6 42 12 59 62 8 25 8 36 -1 47
-19 22 -28 19 -53 -22z"/>
<path d="M457 433 c-4 -3 -7 -21 -7 -39 0 -27 4 -32 29 -36 24 -3 32 0 40 19
17 38 14 51 -14 48 -14 -2 -25 1 -25 6 0 11 -14 12 -23 2z"/>
</g>
</svg>
